<svg xmlns="http://www.w3.org/2000/svg" xmlns:xlink="http://www.w3.org/1999/xlink" width="500" zoomAndPan="magnify" viewBox="0 0 375 374.999991" height="500" preserveAspectRatio="xMidYMid meet" version="1.0"><defs><g/><clipPath id="8819a9db35"><path d="M 0 62 L 375 62 L 375 268.378906 L 0 268.378906 Z M 0 62 " clip-rule="nonzero"/></clipPath><clipPath id="1dc1d58b96"><path d="M 1.042969 271.253906 L 284.941406 271.253906 L 284.941406 276.703125 L 1.042969 276.703125 Z M 1.042969 271.253906 " clip-rule="nonzero"/></clipPath></defs><rect x="-37.5" width="450" fill="#ffffff" y="-37.499999" height="449.999989" fill-opacity="1"/><rect x="-37.5" width="450" fill="#ffffff" y="-37.499999" height="449.999989" fill-opacity="1"/><g clip-path="url(#8819a9db35)"><path fill="#000000" d="M 234.726562 62.3125 C 234.179688 62.429688 233.300781 62.742188 232.78125 63.007812 C 231.421875 63.703125 229.160156 66.277344 227.832031 68.640625 C 226.976562 70.167969 226.539062 70.710938 226.070312 70.828125 C 225.730469 70.914062 224.792969 71.464844 223.988281 72.050781 C 223.078125 72.714844 222.15625 73.367188 221.230469 74.015625 C 220.351562 74.625 219.410156 75.644531 218.304688 77.1875 C 215.890625 80.558594 215.507812 80.445312 217.207031 76.859375 C 217.777344 75.65625 218.613281 74.300781 219.066406 73.851562 C 219.519531 73.398438 221.078125 72.445312 222.527344 71.738281 L 225.167969 70.449219 L 223.609375 70.554688 C 222.75 70.609375 221.222656 70.933594 220.210938 71.277344 L 218.371094 71.898438 L 213.011719 69.972656 C 204.683594 66.984375 203.011719 66.648438 201.53125 67.65625 C 199.992188 68.703125 199.15625 71.523438 199.9375 73.039062 C 200.5 74.125 201.8125 75.160156 203.375 75.753906 C 205.8125 76.675781 209.242188 77.910156 212.09375 78.890625 C 213.609375 79.414062 214.984375 80.019531 215.152344 80.242188 C 215.316406 80.460938 215.449219 81.058594 215.449219 81.566406 C 215.449219 82.074219 215.683594 82.945312 215.964844 83.5 C 216.566406 84.679688 219.027344 87.128906 220.480469 87.988281 C 221.039062 88.320312 221.773438 88.816406 222.113281 89.09375 L 222.738281 89.597656 L 222.453125 92.496094 C 222.136719 95.722656 222.238281 96.28125 223.359375 97.464844 C 225.054688 99.257812 225.289062 99.855469 225.289062 102.433594 C 225.289062 104.664062 225.21875 105.011719 224.1875 107.847656 C 223.15625 110.695312 223.117188 110.898438 223.515625 111.191406 C 223.75 111.363281 224.203125 111.5 224.527344 111.5 C 225.078125 111.5 225.105469 111.5625 224.972656 112.519531 C 224.835938 113.507812 220.003906 127.542969 218.71875 130.679688 C 217.859375 132.777344 217.570312 133.171875 216.070312 134.277344 C 215.105469 134.992188 214.605469 135.589844 214.117188 136.625 C 213.101562 138.769531 210.890625 144.84375 210.890625 145.492188 C 210.890625 145.8125 211.074219 146.417969 211.292969 146.84375 C 212.125 148.433594 211.921875 149.3125 208.601562 158.527344 C 205.613281 166.800781 204.65625 169.675781 204.65625 170.347656 C 204.65625 170.789062 204.972656 171.355469 205.59375 172.03125 L 206.53125 173.046875 L 203.910156 180.363281 C 202.46875 184.386719 200.414062 190.050781 199.347656 192.957031 C 198.277344 195.859375 196.636719 200.394531 195.699219 203.03125 L 193.996094 207.832031 L 193.914062 213.949219 C 193.867188 217.3125 193.917969 220.484375 194.027344 221 L 194.226562 221.929688 L 197.238281 218.359375 C 202.734375 211.84375 203.292969 210.867188 206.101562 202.910156 C 207.886719 197.855469 208.207031 196.953125 212.277344 185.519531 C 213.59375 181.824219 214.875 178.207031 215.121094 177.480469 L 215.574219 176.160156 L 216.96875 176.035156 C 218.085938 175.9375 218.457031 175.792969 218.824219 175.316406 C 219.410156 174.558594 220.722656 171.226562 223.152344 164.332031 C 226.769531 154.066406 226.988281 153.605469 228.4375 153.121094 C 228.957031 152.945312 229.5 152.476562 229.957031 151.800781 C 230.765625 150.597656 233.449219 142.949219 233.441406 141.855469 C 233.4375 141.457031 233.222656 140.660156 232.960938 140.085938 C 232.507812 139.09375 232.503906 138.96875 232.863281 137.585938 C 233.070312 136.785156 234.628906 132.285156 236.324219 127.585938 C 238.019531 122.886719 239.480469 118.753906 239.570312 118.398438 C 239.820312 117.410156 240.242188 117.167969 241.195312 117.484375 C 241.644531 117.632812 242.179688 117.6875 242.390625 117.605469 C 242.601562 117.523438 243.109375 116.632812 243.519531 115.621094 C 243.929688 114.609375 244.550781 113.078125 244.902344 112.222656 C 245.355469 111.117188 245.964844 110.230469 246.992188 109.179688 C 248.28125 107.863281 248.570312 107.683594 249.640625 107.542969 C 252.363281 107.1875 252.871094 106.847656 255.023438 103.945312 L 256.722656 101.660156 L 257.738281 101.839844 C 258.300781 101.9375 260 102.019531 261.515625 102.019531 C 263.894531 102.023438 264.445312 101.949219 265.507812 101.46875 C 266.183594 101.160156 267.042969 100.59375 267.410156 100.207031 C 267.824219 99.777344 268.332031 99.503906 268.71875 99.503906 C 269.066406 99.503906 270.691406 100 272.332031 100.605469 C 278.328125 102.816406 282.292969 104.082031 283.285156 104.105469 C 284.621094 104.132812 285.734375 103.289062 286.5625 101.625 C 287.285156 100.179688 287.351562 99.082031 286.792969 97.910156 C 286.023438 96.285156 285.167969 95.863281 276.277344 92.753906 C 273.640625 91.832031 271.347656 90.964844 271.179688 90.824219 C 271.011719 90.683594 270.589844 89.9375 270.242188 89.160156 C 269.773438 88.113281 269.117188 87.289062 267.691406 85.949219 L 265.773438 84.144531 L 265.984375 82.886719 C 266.308594 80.949219 266.238281 76.742188 265.859375 75.429688 C 264.953125 72.320312 259.773438 68.851562 251.320312 65.699219 C 245.085938 63.375 241.34375 62.414062 237.730469 62.210938 C 236.628906 62.148438 235.277344 62.195312 234.726562 62.3125 M 233.753906 64.589844 C 232.363281 65.195312 230.617188 67.300781 229.363281 69.875 C 226.867188 75.015625 224.089844 87.71875 224.089844 94 C 224.089844 95.492188 224.132812 95.617188 224.949219 96.398438 C 225.421875 96.855469 226.097656 97.710938 226.445312 98.304688 C 227.015625 99.265625 227.09375 99.679688 227.171875 102.042969 C 227.25 104.492188 227.195312 104.886719 226.5 107.058594 C 226.085938 108.355469 225.777344 109.582031 225.816406 109.785156 C 225.863281 110.027344 227.546875 110.769531 230.6875 111.929688 C 238.753906 114.914062 240.652344 115.582031 241.074219 115.574219 C 241.621094 115.566406 243.316406 111.328125 243.011719 110.738281 C 242.898438 110.519531 241.914062 109.996094 240.824219 109.578125 C 237.320312 108.234375 230.566406 105.421875 230.648438 105.339844 C 230.695312 105.296875 233.683594 106.125 237.292969 107.179688 C 240.902344 108.238281 243.992188 109.101562 244.15625 109.101562 C 244.554688 109.101562 249.191406 104.613281 248.996094 104.417969 C 248.914062 104.335938 248.050781 104.105469 247.082031 103.910156 C 242.257812 102.925781 235.949219 100.605469 232.851562 98.675781 C 231.867188 98.0625 230.996094 97.460938 230.921875 97.34375 C 230.851562 97.222656 232.117188 97.757812 233.738281 98.53125 C 235.359375 99.304688 237.351562 100.164062 238.167969 100.4375 C 241.59375 101.582031 246.597656 102.609375 249.210938 102.699219 L 250.574219 102.742188 L 251.808594 101.035156 C 253.0625 99.292969 256.171875 92.632812 256.410156 91.179688 C 256.519531 90.519531 256.457031 90.394531 255.96875 90.28125 C 249.925781 88.902344 247.003906 88.007812 242.441406 86.148438 C 239.722656 85.039062 233.121094 81.753906 233.285156 81.59375 C 233.335938 81.542969 234.300781 81.925781 235.425781 82.445312 C 240.613281 84.828125 246.703125 86.792969 252.640625 88 C 257.421875 88.96875 257.300781 88.980469 257.875 87.449219 C 259.304688 83.617188 261.757812 75.183594 261.757812 74.089844 C 261.757812 73.496094 260.039062 71.550781 259.082031 71.054688 C 257.664062 70.324219 257.636719 70.359375 255.878906 75.214844 C 254.441406 79.183594 253.039062 82.46875 252.785156 82.46875 C 252.402344 82.46875 250.980469 81.691406 250.601562 81.269531 C 250.132812 80.753906 250.132812 80.742188 250.816406 78.792969 C 251.195312 77.714844 252.082031 75.277344 252.789062 73.378906 C 254.074219 69.941406 254.320312 68.734375 253.808594 68.417969 C 253.207031 68.042969 251.925781 67.898438 251.578125 68.164062 C 251.378906 68.3125 250.347656 70.804688 249.285156 73.699219 C 247.507812 78.546875 246.84375 80.070312 246.5 80.070312 C 246.429688 80.070312 245.835938 79.84375 245.1875 79.5625 C 244.433594 79.238281 244 78.902344 244 78.648438 C 244 78.175781 244.886719 75.558594 246.617188 70.894531 C 247.289062 69.082031 247.839844 67.339844 247.839844 67.027344 C 247.839844 66.257812 247.296875 65.855469 246.226562 65.824219 L 245.339844 65.796875 L 244.460938 67.835938 C 243.976562 68.957031 242.972656 71.546875 242.226562 73.589844 C 241.480469 75.636719 240.722656 77.453125 240.542969 77.632812 C 240.269531 77.90625 240.042969 77.882812 239.109375 77.46875 C 238.496094 77.199219 237.9375 76.820312 237.863281 76.628906 C 237.691406 76.175781 238.144531 74.683594 239.914062 69.859375 C 241.515625 65.496094 241.664062 64.613281 240.824219 64.386719 C 239.738281 64.097656 234.546875 64.246094 233.753906 64.589844 M 231.769531 68.550781 C 230.859375 69.828125 229.425781 73.171875 228.679688 75.753906 C 227.5 79.832031 225.046875 91.59375 225.046875 93.171875 C 225.046875 95.398438 225.820312 92.828125 227.683594 84.390625 C 229.269531 77.203125 231.171875 70.464844 232.164062 68.496094 C 232.601562 67.625 232.40625 67.65625 231.769531 68.550781 M 202.496094 69.480469 C 202.496094 69.859375 202.433594 70.695312 202.359375 71.339844 L 202.222656 72.515625 L 203.027344 71.601562 L 203.835938 70.691406 L 205.863281 71.332031 C 206.980469 71.683594 209.652344 72.605469 211.804688 73.382812 C 213.957031 74.15625 216.039062 74.792969 216.433594 74.792969 C 217.230469 74.792969 217.582031 74.257812 217.136719 73.71875 C 216.539062 73.003906 204.65625 68.796875 203.222656 68.796875 C 202.582031 68.796875 202.496094 68.878906 202.496094 69.480469 M 266.019531 86.445312 C 265.953125 86.511719 266.289062 87.453125 266.765625 88.539062 L 267.632812 90.507812 L 267.609375 93.925781 C 267.59375 95.808594 267.671875 97.347656 267.78125 97.347656 C 268.941406 97.347656 269.574219 91.375 268.640625 89.210938 C 268.144531 88.058594 266.324219 86.140625 266.019531 86.445312 M 269.992188 93.367188 C 270.082031 93.597656 270.152344 93.871094 270.152344 93.976562 C 270.152344 94.238281 271.640625 94.855469 277.109375 96.855469 C 279.683594 97.796875 282.03125 98.726562 282.328125 98.921875 C 282.71875 99.175781 282.871094 99.507812 282.871094 100.109375 C 282.871094 100.570312 282.96875 100.945312 283.089844 100.945312 C 283.433594 100.945312 284.789062 98.980469 284.789062 98.484375 C 284.789062 97.90625 283.226562 97.199219 277.011719 94.957031 C 271.90625 93.117188 269.707031 92.617188 269.992188 93.367188 M 238.78125 110.171875 C 238.386719 110.503906 237.425781 111.011719 236.652344 111.300781 C 235.035156 111.902344 234.546875 112.21875 234.816406 112.484375 C 235.082031 112.75 240.125 114.378906 240.675781 114.378906 C 240.992188 114.378906 241.300781 113.992188 241.699219 113.089844 C 242.011719 112.382812 242.390625 111.730469 242.535156 111.636719 C 243.027344 111.335938 242.808594 111.089844 241.664062 110.65625 C 241.035156 110.417969 240.292969 110.074219 240.011719 109.894531 C 239.554688 109.601562 239.421875 109.628906 238.78125 110.171875 M 226.828125 113.792969 C 226.628906 114.261719 226.003906 115.960938 225.429688 117.570312 C 219.761719 133.5 219.628906 133.808594 217.660156 135.402344 C 216.574219 136.28125 216.054688 136.929688 215.558594 138 C 214.738281 139.777344 212.8125 145.214844 212.8125 145.75 C 212.8125 145.964844 213.101562 146.5625 213.457031 147.074219 C 214.324219 148.328125 214.722656 146.953125 208.605469 163.804688 C 206.375 169.945312 206.3125 170.164062 206.652344 170.617188 C 206.816406 170.835938 207.886719 171.191406 209.214844 171.464844 C 210.464844 171.726562 211.707031 172.003906 211.972656 172.082031 C 212.402344 172.210938 212.453125 172.109375 212.476562 171.074219 C 212.492188 170.390625 212.964844 168.5625 213.644531 166.5625 C 215.777344 160.28125 218.046875 154.03125 218.554688 153.039062 C 219.15625 151.855469 220.496094 150.910156 221.949219 150.640625 L 223.007812 150.441406 L 221.929688 149.929688 C 221.335938 149.648438 220.660156 149.417969 220.429688 149.414062 C 220.183594 149.410156 220.007812 149.226562 220.007812 148.972656 C 220.007812 148.414062 222.179688 142.648438 222.992188 141.042969 C 223.730469 139.585938 223.753906 139.332031 223.140625 139.332031 C 222.441406 139.332031 218.644531 138.078125 218.984375 137.960938 C 219.144531 137.902344 220.140625 138.082031 221.195312 138.355469 C 223.695312 139.003906 224.089844 138.996094 224.089844 138.3125 C 224.089844 138.015625 224.316406 137.40625 224.589844 136.953125 C 224.871094 136.492188 225.042969 135.890625 224.980469 135.574219 C 224.921875 135.265625 224.96875 135.015625 225.082031 135.015625 C 225.195312 135.015625 225.289062 134.867188 225.289062 134.683594 C 225.289062 134.023438 230.683594 118.683594 231.433594 117.214844 C 231.894531 116.3125 232.128906 116.226562 232.957031 116.65625 C 233.941406 117.164062 233.902344 117.648438 232.617188 121.042969 C 232.03125 122.589844 230.800781 125.972656 229.882812 128.558594 C 228.964844 131.140625 227.988281 133.707031 227.707031 134.253906 C 227.238281 135.175781 227.121094 135.253906 226.242188 135.253906 C 225.550781 135.253906 225.289062 135.355469 225.289062 135.617188 C 225.289062 135.90625 225.484375 135.949219 226.246094 135.824219 C 226.992188 135.707031 227.207031 135.75 227.207031 136.015625 C 227.207031 136.464844 226.164062 137.871094 225.34375 138.523438 L 224.699219 139.039062 L 225.652344 139.304688 C 227.101562 139.707031 227.152344 139.675781 227.460938 138.191406 C 227.617188 137.433594 228.226562 135.640625 228.8125 134.210938 C 229.398438 132.777344 230.289062 130.457031 230.796875 129.050781 C 231.300781 127.648438 232.304688 124.984375 233.03125 123.136719 C 234.578125 119.191406 235.234375 117.03125 234.960938 116.765625 C 234.660156 116.472656 227.699219 112.941406 227.425781 112.941406 C 227.292969 112.941406 227.023438 113.324219 226.828125 113.792969 M 278.550781 114.988281 C 274.15625 115.542969 268.34375 116.753906 265.351562 117.734375 C 259.75 119.566406 253.765625 123.117188 249.972656 126.855469 C 246.261719 130.515625 242.949219 137.273438 242.132812 142.851562 C 242.039062 143.488281 241.976562 146.007812 241.992188 148.449219 C 242.015625 152.398438 242.085938 153.144531 242.640625 155.234375 C 243.746094 159.433594 246.847656 164.460938 249.960938 167.101562 C 256.144531 172.34375 261.707031 174.535156 281.191406 179.394531 C 290.976562 181.839844 294.171875 182.84375 297.28125 184.460938 C 299.707031 185.722656 301.542969 187.398438 302.53125 189.25 C 303.210938 190.523438 303.34375 191.054688 303.449219 192.859375 L 303.570312 194.976562 L 302.523438 196.804688 C 301.945312 197.808594 300.957031 199.152344 300.320312 199.789062 C 298.121094 201.988281 294.117188 203.570312 289.34375 204.125 C 286.117188 204.5 276.652344 204.289062 273.390625 203.769531 C 265.675781 202.539062 257.933594 199.71875 250 195.246094 C 247.835938 194.027344 247.121094 193.878906 247.121094 194.640625 C 247.121094 195.113281 245.808594 198.167969 242.335938 205.792969 L 239.652344 211.667969 L 240.449219 212.339844 C 241.507812 213.234375 249.757812 217.3125 252.703125 218.398438 C 258.292969 220.460938 264.351562 221.898438 271.472656 222.863281 C 274.96875 223.335938 276.601562 223.414062 282.871094 223.417969 C 292.269531 223.425781 296.675781 222.847656 302.949219 220.785156 C 313.488281 217.316406 320.523438 211.800781 324.378906 203.992188 C 325.160156 202.410156 326.015625 200.445312 326.285156 199.628906 C 326.894531 197.765625 327.496094 193.828125 327.496094 191.699219 C 327.492188 186.234375 325.722656 179.859375 323.179688 176.164062 C 321.910156 174.320312 317.851562 170.441406 315.710938 169.023438 C 310.542969 165.609375 305.210938 163.769531 287.667969 159.359375 C 273.785156 155.871094 269.054688 153.851562 266.917969 150.507812 C 265.792969 148.75 265.429688 146.855469 265.800781 144.628906 C 266.480469 140.496094 269.175781 137.523438 274.003906 135.570312 C 277.046875 134.34375 278.359375 134.191406 285.988281 134.183594 C 292.460938 134.175781 293.304688 134.226562 295.824219 134.734375 C 300.886719 135.757812 305.875 137.59375 311.707031 140.578125 C 313.511719 141.5 315.109375 142.183594 315.25 142.097656 C 315.640625 141.855469 316.777344 139.480469 317.660156 137.054688 C 318.09375 135.867188 319.363281 132.734375 320.476562 130.09375 C 321.59375 127.457031 322.507812 125.054688 322.511719 124.757812 C 322.519531 123.917969 322.09375 123.578125 319.363281 122.226562 C 311.726562 118.453125 305.757812 116.722656 295.554688 115.332031 C 290.660156 114.664062 282.410156 114.496094 278.550781 114.988281 M 63.304688 116 C 58.941406 116.054688 57.816406 116.136719 57.585938 116.414062 C 57.367188 116.675781 57.269531 129.277344 57.164062 169.703125 L 57.027344 222.652344 L 83.875 222.519531 C 112.851562 222.375 113.300781 222.355469 120.203125 221.011719 C 125.445312 219.992188 132.507812 217.636719 136.855469 215.453125 C 147.609375 210.0625 155.847656 200.949219 160.46875 189.339844 C 162.566406 184.074219 163.570312 178.65625 164.011719 170.214844 C 164.101562 168.53125 164.246094 167.105469 164.339844 167.050781 C 164.539062 166.925781 166.066406 170.578125 168.75 177.601562 C 172.066406 186.285156 183.613281 214.996094 185.027344 218.085938 C 185.4375 218.976562 185.835938 219.703125 185.917969 219.699219 C 185.996094 219.695312 186.414062 218.589844 186.851562 217.242188 C 187.285156 215.890625 189.324219 210.144531 191.378906 204.472656 C 196.074219 191.511719 197.457031 187.441406 197.457031 186.5625 C 197.457031 186.179688 196.976562 184.914062 196.394531 183.75 C 195.808594 182.585938 194.953125 180.566406 194.492188 179.257812 C 193.707031 177.03125 192.222656 173.285156 190.128906 168.242188 C 189.636719 167.054688 188.941406 165.328125 188.582031 164.40625 C 188 162.90625 186.113281 158.234375 177.597656 137.171875 C 176.089844 133.4375 174.589844 129.695312 173.105469 125.949219 C 171.941406 123.011719 170.75 120.347656 170.460938 120.035156 C 170.050781 119.59375 169.578125 119.429688 168.398438 119.308594 C 166.351562 119.097656 145.960938 119.25 145.734375 119.476562 C 145.464844 119.746094 145.972656 121.242188 148.085938 126.375 C 150.460938 132.15625 150.921875 133.082031 152.335938 134.894531 C 154.839844 138.097656 158.835938 144.441406 158.539062 144.742188 C 158.480469 144.800781 157.773438 143.742188 156.964844 142.390625 C 155.5625 140.039062 154.464844 138.445312 152.125 135.347656 C 150.984375 133.839844 147.167969 130.078125 144.792969 128.121094 C 141.804688 125.660156 139.253906 124.210938 133.3125 121.589844 C 129.609375 119.957031 127.019531 119.070312 123.457031 118.214844 C 116.925781 116.644531 112.917969 116.34375 95.128906 116.0625 C 81.875 115.855469 75.527344 115.84375 63.304688 116 M 222.289062 135.015625 C 223.351562 135.285156 223.847656 135.285156 223.847656 135.015625 C 223.847656 134.882812 223.335938 134.785156 222.707031 134.800781 C 221.691406 134.828125 221.644531 134.851562 222.289062 135.015625 M 82.105469 135.914062 C 81.890625 136.4375 81.960938 192.871094 82.183594 198.535156 L 82.34375 202.671875 L 96.074219 202.671875 C 108.703125 202.671875 110.011719 202.632812 112.421875 202.199219 C 117.871094 201.210938 121.949219 199.632812 125.933594 196.972656 C 128.550781 195.222656 132.730469 191.089844 134.238281 188.761719 C 136.042969 185.976562 137.660156 182.277344 138.484375 179.0625 C 139.1875 176.320312 139.234375 175.851562 139.335938 170.605469 C 139.484375 162.625 138.867188 158.980469 136.496094 153.828125 C 134.082031 148.585938 131.082031 144.839844 126.765625 141.6875 C 124.597656 140.101562 119.898438 137.824219 117.203125 137.050781 C 112.09375 135.582031 110.882812 135.492188 95.9375 135.492188 C 83.15625 135.492188 82.265625 135.519531 82.105469 135.914062 M 223.609375 140.28125 C 223.609375 140.621094 225.074219 141.671875 225.804688 141.851562 C 226.59375 142.050781 226.78125 142.695312 226.464844 144.109375 C 226.117188 145.660156 224.507812 148.949219 223.761719 149.632812 C 223.09375 150.246094 222.925781 150.851562 223.429688 150.84375 C 224.765625 150.832031 225.171875 150.285156 226.628906 146.503906 C 228.023438 142.894531 227.675781 141.222656 225.367188 140.433594 C 224.082031 139.996094 223.609375 139.957031 223.609375 140.28125 M 158.722656 145.402344 C 158.816406 145.636719 158.949219 145.769531 159.023438 145.695312 C 159.097656 145.621094 159.023438 145.429688 158.859375 145.265625 C 158.621094 145.03125 158.59375 145.058594 158.722656 145.402344 M 217.492188 149.777344 C 218.304688 150.152344 219.53125 150.234375 219.53125 149.917969 C 219.53125 149.675781 218.324219 149.398438 217.402344 149.429688 L 216.769531 149.449219 Z M 221.964844 151.699219 C 221.441406 152.359375 220.699219 154.214844 218.671875 159.910156 C 216.359375 166.410156 215.011719 169.988281 214.355469 171.371094 C 213.917969 172.296875 213.792969 172.800781 213.964844 172.96875 C 214.554688 173.5625 214.933594 172.785156 217.734375 165.234375 C 218.9375 161.988281 220.148438 158.746094 221.355469 155.503906 C 222.199219 153.246094 222.886719 151.328125 222.886719 151.242188 C 222.886719 150.894531 222.414062 151.128906 221.964844 151.699219 M 208.140625 173.867188 C 208.066406 173.992188 207.511719 175.527344 206.910156 177.285156 C 206.308594 179.042969 203.839844 185.929688 201.421875 192.59375 C 199.007812 199.257812 196.796875 205.46875 196.511719 206.390625 C 195.941406 208.230469 195.375 214.570312 195.652344 216.039062 C 195.804688 216.867188 195.8125 216.871094 196.308594 216.429688 C 196.585938 216.1875 197.648438 215.03125 198.675781 213.859375 C 201.390625 210.757812 201.734375 209.988281 207.222656 194.632812 C 213.246094 177.796875 214.191406 174.839844 213.5625 174.839844 C 213.214844 174.839844 212.492188 176.734375 207.523438 190.703125 C 201.582031 207.390625 201.101562 208.621094 199.46875 211.230469 C 198.101562 213.417969 197.21875 214.511719 197.21875 214.007812 C 197.21875 213.578125 203.773438 195.195312 208.617188 182.035156 C 210.121094 177.945312 211.132812 174.972656 211.132812 174.636719 C 211.132812 174.503906 210.550781 174.226562 209.835938 174.019531 C 208.3125 173.574219 208.320312 173.574219 208.140625 173.867188 M 212.4375 196.253906 C 211.417969 199.324219 210.539062 201.953125 210.484375 202.101562 C 210.421875 202.265625 211.246094 202.582031 212.617188 202.917969 C 213.847656 203.21875 216.949219 204.039062 219.515625 204.742188 C 222.078125 205.445312 224.222656 205.976562 224.277344 205.921875 C 224.328125 205.871094 222.632812 203.21875 220.507812 200.03125 C 218.382812 196.84375 216.203125 193.433594 215.664062 192.457031 C 215.128906 191.476562 214.597656 190.675781 214.488281 190.675781 C 214.378906 190.675781 213.457031 193.1875 212.4375 196.253906 M 217.410156 207.980469 C 217.613281 208.292969 218.90625 210.125 220.277344 212.050781 C 221.648438 213.980469 223.136719 216.082031 223.585938 216.730469 C 224.539062 218.101562 224.367188 218.328125 225.632812 214.050781 C 226.601562 210.769531 226.660156 210.21875 226.066406 209.902344 C 225.835938 209.78125 223.921875 209.230469 221.808594 208.679688 C 219.699219 208.132812 217.757812 207.621094 217.503906 207.542969 C 217.0625 207.414062 217.054688 207.441406 217.410156 207.980469 M 208.472656 211.257812 C 203.191406 216.835938 200.445312 219.796875 200.371094 219.992188 C 200.320312 220.125 202.175781 220.160156 205.050781 220.078125 C 207.667969 220.003906 212.699219 219.878906 216.226562 219.796875 C 219.757812 219.71875 222.589844 219.5625 222.519531 219.453125 C 222.375 219.214844 211.996094 210.632812 211.140625 210.039062 C 210.8125 209.816406 210.425781 209.628906 210.277344 209.628906 C 210.132812 209.628906 209.320312 210.363281 208.472656 211.257812 M 153.070312 227.609375 L 149.351562 227.742188 L 149.203125 229.542969 C 149.121094 230.535156 149.039062 235.808594 149.023438 241.269531 C 149 249.183594 148.929688 251.144531 148.691406 250.941406 C 148.527344 250.800781 145.097656 245.726562 141.074219 239.664062 C 134.429688 229.652344 133.667969 228.601562 132.796875 228.210938 C 132.046875 227.875 131.019531 227.761719 128.097656 227.683594 L 124.359375 227.582031 L 124.199219 239.660156 C 124.113281 246.300781 124.039062 254.949219 124.039062 258.875 L 124.039062 266.011719 L 133.15625 266.011719 L 133.179688 254.796875 C 133.195312 248.625 133.277344 243.320312 133.367188 243.007812 C 133.503906 242.515625 134.113281 243.320312 137.71875 248.765625 C 140.027344 252.246094 143.539062 257.523438 145.523438 260.492188 L 149.136719 265.890625 L 157.988281 265.890625 L 158.050781 248.339844 C 158.085938 238.6875 158.03125 230.050781 157.929688 229.148438 C 157.773438 227.730469 157.683594 227.503906 157.269531 227.492188 C 157.003906 227.484375 155.117188 227.539062 153.070312 227.609375 M 179.941406 227.644531 C 172.636719 228.570312 166.605469 233.746094 164.449219 240.941406 C 163.867188 242.875 163.796875 243.496094 163.78125 246.9375 C 163.761719 250.679688 163.78125 250.835938 164.542969 253.042969 C 164.976562 254.289062 165.652344 255.914062 166.042969 256.652344 C 168.246094 260.777344 172.839844 264.28125 177.722656 265.558594 C 180.390625 266.253906 185.539062 266.246094 188.21875 265.542969 C 193.453125 264.175781 197.609375 260.902344 200.246094 256.074219 L 201.175781 254.375 L 201.257812 249.554688 L 201.335938 244.730469 L 200.058594 244.578125 C 198.351562 244.371094 182.867188 244.421875 182.101562 244.632812 C 181.503906 244.796875 181.5 244.820312 181.433594 247.9375 L 181.367188 251.074219 L 182.125 251.226562 C 182.542969 251.308594 185.136719 251.375 187.890625 251.375 C 193.523438 251.375 193.328125 251.300781 192.421875 253.167969 C 191.738281 254.582031 189.632812 256.617188 188.101562 257.347656 C 186.878906 257.925781 186.539062 257.972656 183.542969 257.972656 C 180.480469 257.972656 180.21875 257.9375 178.8125 257.285156 C 177.140625 256.511719 175.046875 254.503906 174.214844 252.871094 C 172.566406 249.640625 172.589844 244.203125 174.269531 240.890625 C 175.109375 239.234375 177.429688 237.148438 179.152344 236.5 C 181.125 235.761719 183.574219 235.617188 185.613281 236.125 C 188.011719 236.726562 188.816406 237.191406 189.867188 238.601562 L 190.804688 239.859375 L 195.691406 239.859375 C 201.277344 239.859375 201 240 200.078125 237.648438 C 198.292969 233.078125 193.859375 229.371094 188.699219 228.132812 C 186.46875 227.597656 182.183594 227.359375 179.941406 227.644531 M 2.398438 246.824219 L 2.398438 266.023438 L 11.15625 265.890625 L 11.277344 254.617188 C 11.390625 244.007812 11.417969 243.382812 11.789062 244.058594 C 12.453125 245.277344 13.722656 248.519531 16.917969 257.132812 C 18.605469 261.6875 20.152344 265.546875 20.355469 265.710938 C 20.613281 265.917969 21.742188 266.011719 24.023438 266.011719 C 26.402344 266.011719 27.375 265.929688 27.515625 265.710938 C 27.796875 265.269531 32.179688 253.742188 34.53125 247.257812 C 36.066406 243.027344 36.121094 243.023438 36.308594 247.085938 C 36.394531 248.984375 36.46875 254.019531 36.46875 258.273438 L 36.46875 266.011719 L 45.585938 266.011719 L 45.582031 248.796875 C 45.582031 239.328125 45.511719 230.691406 45.429688 229.605469 L 45.273438 227.625 L 40.570312 227.628906 C 37.984375 227.628906 35.636719 227.691406 35.351562 227.769531 C 34.78125 227.921875 33.464844 230.976562 27.597656 245.738281 C 25.867188 250.089844 24.367188 253.738281 24.265625 253.839844 C 24.160156 253.941406 23.898438 253.828125 23.675781 253.585938 C 23.457031 253.339844 21.128906 247.796875 18.507812 241.261719 C 15.886719 234.730469 13.550781 229.097656 13.324219 228.75 C 12.707031 227.808594 11.640625 227.628906 6.777344 227.625 L 2.398438 227.625 Z M 51.976562 228.738281 C 51.890625 229.347656 51.824219 237.988281 51.824219 247.929688 L 51.824219 266.011719 L 60.941406 266.011719 L 60.941406 227.625 L 52.128906 227.625 Z M 68.296875 227.785156 C 68.210938 227.871094 68.136719 236.507812 68.136719 246.976562 L 68.136719 266.011719 L 77.25 266.011719 L 77.3125 254.101562 L 77.375 242.1875 L 78.722656 244.203125 C 79.464844 245.3125 82.71875 250.214844 85.953125 255.09375 C 89.1875 259.976562 92.171875 264.429688 92.582031 264.992188 L 93.332031 266.011719 L 101.910156 266.011719 L 102.089844 255.273438 C 102.335938 240.691406 102.15625 228.132812 101.703125 227.84375 C 101.519531 227.726562 99.503906 227.628906 97.230469 227.628906 L 93.089844 227.625 L 93.089844 239.410156 C 93.089844 250.09375 93.054688 251.167969 92.714844 250.882812 C 92.507812 250.710938 90.121094 247.214844 87.414062 243.117188 C 84.707031 239.015625 81.289062 233.855469 79.816406 231.648438 L 77.136719 227.632812 L 72.796875 227.628906 C 70.410156 227.625 68.386719 227.695312 68.296875 227.785156 M 107.964844 246.8125 L 107.964844 266.011719 L 117.085938 266.011719 L 117.023438 246.878906 L 116.960938 227.742188 L 112.464844 227.679688 L 107.964844 227.613281 Z M 218.808594 246.816406 L 218.808594 266.011719 L 227.6875 266.011719 L 227.6875 227.933594 L 226.210938 227.777344 C 225.402344 227.695312 223.402344 227.625 221.773438 227.625 L 218.808594 227.625 Z M 235.042969 228.488281 C 234.960938 229.003906 234.890625 237.65625 234.886719 247.71875 L 234.886719 266.011719 L 244 266.011719 L 244 254.375 C 244 247.976562 244.09375 242.738281 244.203125 242.738281 C 244.527344 242.738281 246.714844 245.90625 252.570312 254.855469 C 255.589844 259.472656 258.476562 263.875 258.984375 264.632812 L 259.90625 266.011719 L 268.714844 266.011719 L 268.714844 227.625 L 259.78125 227.625 L 259.871094 239.261719 C 259.921875 245.660156 259.882812 250.898438 259.785156 250.898438 C 259.6875 250.898438 259.160156 250.328125 258.609375 249.636719 C 257.5625 248.3125 250.113281 237.148438 246.726562 231.824219 C 245.632812 230.105469 244.601562 228.511719 244.429688 228.273438 C 244.160156 227.894531 243.574219 227.824219 239.660156 227.695312 L 235.199219 227.550781 Z M 274.714844 244.839844 C 274.714844 254.308594 274.785156 262.945312 274.867188 264.03125 L 275.023438 266.011719 L 283.90625 266.011719 L 283.746094 258.214844 L 283.589844 250.417969 L 287.96875 250.414062 C 290.375 250.414062 293.0625 250.34375 293.941406 250.261719 L 295.535156 250.113281 L 295.632812 247.324219 C 295.6875 245.792969 295.683594 244.351562 295.628906 244.117188 C 295.542969 243.75 295.207031 243.699219 292.957031 243.699219 C 291.539062 243.699219 288.910156 243.628906 287.105469 243.542969 L 283.828125 243.382812 L 283.828125 234.992188 L 290.375 235.160156 C 293.976562 235.253906 297.484375 235.257812 298.171875 235.164062 L 299.425781 235 L 299.425781 227.625 L 274.710938 227.625 Z M 304.703125 246.816406 L 304.703125 266.011719 L 313.578125 266.011719 L 313.578125 251.136719 L 314.421875 251.136719 C 315.839844 251.136719 316.664062 252.191406 319.851562 258.09375 C 321.457031 261.0625 323.046875 263.996094 323.386719 264.609375 C 324.148438 265.988281 324.226562 266.003906 329.976562 266.007812 L 334.253906 266.011719 L 333.304688 264.273438 C 332.78125 263.316406 331.625 261.292969 330.734375 259.773438 C 326.984375 253.378906 325.8125 251.265625 325.886719 251.027344 C 325.929688 250.890625 326.753906 250.382812 327.71875 249.898438 C 330.488281 248.511719 332.851562 245.878906 333.648438 243.285156 C 333.847656 242.640625 334.003906 241.171875 334.007812 239.929688 C 334.027344 234.414062 330.933594 230.230469 325.621094 228.582031 C 323.609375 227.957031 318.609375 227.632812 310.878906 227.628906 L 304.703125 227.625 Z M 350.871094 227.789062 C 350.730469 227.894531 350.152344 229.332031 349.59375 230.984375 C 348.351562 234.621094 342.953125 249.574219 339.675781 258.453125 C 338.359375 262.015625 337.265625 265.148438 337.246094 265.410156 C 337.214844 265.875 337.382812 265.894531 341.53125 265.960938 C 343.90625 265.996094 346.070312 265.972656 346.339844 265.90625 C 346.714844 265.816406 346.898438 265.464844 347.117188 264.398438 C 347.277344 263.636719 347.679688 262.121094 348.015625 261.035156 L 348.625 259.054688 L 363.445312 259.054688 L 364.199219 261.511719 C 364.609375 262.867188 365.085938 264.40625 365.253906 264.933594 L 365.5625 265.890625 L 370.28125 265.957031 C 374.230469 266.011719 375 265.964844 375 265.679688 C 375 265.492188 374.632812 264.382812 374.179688 263.214844 C 373.730469 262.050781 372.660156 259.097656 371.804688 256.65625 C 370.945312 254.214844 368.738281 248.058594 366.894531 242.980469 C 365.050781 237.898438 363.136719 232.554688 362.636719 231.101562 C 362.136719 229.652344 361.597656 228.320312 361.441406 228.144531 C 361.105469 227.777344 351.316406 227.445312 350.871094 227.789062 M 313.578125 239.859375 L 313.578125 244.898438 L 317.664062 244.898438 C 322.261719 244.898438 322.992188 244.726562 323.921875 243.425781 C 324.441406 242.695312 324.496094 242.378906 324.496094 240.015625 L 324.496094 237.410156 L 323.671875 236.71875 C 323.214844 236.339844 322.351562 235.867188 321.75 235.667969 C 320.757812 235.339844 316.273438 234.828125 314.359375 234.824219 L 313.578125 234.820312 Z M 355.566406 238.066406 C 355.566406 238.136719 354.59375 241.289062 353.40625 245.070312 C 352.21875 248.855469 351.246094 252.039062 351.246094 252.144531 C 351.246094 252.25 353.414062 252.335938 356.066406 252.335938 L 360.882812 252.335938 L 360.714844 251.554688 C 360.542969 250.757812 357.488281 241.808594 356.539062 239.320312 C 356.25 238.5625 355.910156 237.941406 355.789062 237.941406 C 355.667969 237.941406 355.566406 237.996094 355.566406 238.066406 M 0.960938 272.214844 C 0.960938 272.855469 1.027344 274.042969 1.113281 274.855469 L 1.269531 276.328125 L 143.328125 276.269531 L 285.386719 276.207031 L 285.386719 271.171875 L 143.175781 271.109375 L 0.960938 271.050781 Z M 373.242188 273.128906 C 373.152344 273.21875 373.082031 274.78125 373.082031 276.609375 C 373.082031 278.433594 373.015625 279.925781 372.9375 279.925781 C 372.859375 279.925781 372.136719 279.523438 371.335938 279.027344 C 370.003906 278.207031 369.703125 278.121094 367.839844 278.042969 C 365.292969 277.933594 364.285156 278.230469 363.007812 279.472656 C 361.429688 281 360.964844 282.253906 360.964844 284.964844 C 360.964844 287.675781 361.402344 288.78125 363.292969 290.851562 L 364.492188 292.164062 L 358.207031 292.164062 L 358.207031 291.59375 C 358.207031 290.824219 357.8125 290.546875 356.269531 290.226562 C 355.554688 290.078125 354.832031 289.785156 354.667969 289.574219 C 354.335938 289.152344 354.257812 284.828125 354.523438 281.425781 L 354.675781 279.449219 L 356.441406 279.449219 C 357.980469 279.449219 358.207031 279.390625 358.207031 279.015625 C 358.207031 278.25 357.683594 278.007812 356.023438 278.007812 L 354.417969 278.007812 L 354.328125 276.195312 C 354.265625 274.9375 354.128906 274.316406 353.882812 274.160156 C 352.910156 273.546875 352.445312 274.082031 352.191406 276.097656 C 351.960938 277.917969 351.757812 278.238281 350.8125 278.246094 C 350.371094 278.246094 350.269531 278.363281 350.332031 278.789062 C 350.386719 279.175781 350.59375 279.347656 351.082031 279.40625 C 351.453125 279.449219 351.796875 279.609375 351.847656 279.765625 C 351.894531 279.921875 352.007812 282.289062 352.097656 285.027344 L 352.261719 290.003906 L 352.953125 290.878906 C 353.335938 291.355469 353.648438 291.84375 353.648438 291.957031 C 353.648438 292.070312 352.621094 292.164062 351.367188 292.164062 L 349.089844 292.164062 L 349.089844 290.484375 L 342.617188 290.484375 L 342.554688 282.265625 L 342.492188 274.050781 L 340.210938 273.902344 L 340.210938 282.992188 C 340.210938 287.992188 340.167969 292.128906 340.113281 292.183594 C 340.058594 292.238281 337.734375 292.253906 334.953125 292.214844 L 329.894531 292.144531 L 329.894531 291.003906 C 329.894531 289.738281 329.597656 289.285156 328.765625 289.285156 C 327.820312 289.285156 327.277344 290.058594 327.425781 291.183594 L 327.558594 292.164062 L 326.234375 292.164062 C 324.910156 292.164062 324.910156 292.164062 324.753906 291.324219 C 324.582031 290.425781 324.503906 290.386719 322.378906 290.140625 C 321.738281 290.066406 321.117188 289.945312 320.996094 289.871094 C 320.742188 289.714844 320.722656 281.949219 320.976562 280.527344 L 321.144531 279.566406 L 322.878906 279.496094 C 324.523438 279.429688 324.617188 279.394531 324.617188 278.863281 C 324.617188 278.152344 324.230469 278.007812 322.316406 278.007812 L 320.777344 278.007812 L 320.777344 276.703125 C 320.777344 275.988281 320.671875 275.121094 320.539062 274.777344 C 319.933594 273.179688 318.617188 274.105469 318.617188 276.132812 C 318.617188 277.53125 318.296875 278.246094 317.667969 278.246094 C 316.980469 278.246094 316.457031 278.503906 316.457031 278.847656 C 316.457031 279.1875 316.976562 279.449219 317.664062 279.449219 C 317.910156 279.449219 318.179688 279.5625 318.265625 279.699219 C 318.351562 279.835938 318.492188 282.195312 318.578125 284.9375 C 318.738281 289.894531 318.742188 289.925781 319.398438 290.785156 C 319.761719 291.261719 320.058594 291.765625 320.058594 291.90625 C 320.058594 292.082031 318.367188 292.164062 314.804688 292.164062 L 309.550781 292.164062 L 311.800781 286.519531 C 314.917969 278.691406 315.183594 277.492188 313.726562 277.859375 C 312.925781 278.0625 312.582031 278.757812 310.574219 284.246094 C 309.964844 285.921875 309.351562 287.59375 308.738281 289.265625 C 308.550781 289.765625 308.476562 289.800781 308.191406 289.503906 C 308.007812 289.316406 307.46875 288.03125 306.988281 286.644531 C 306.511719 285.257812 305.570312 282.746094 304.898438 281.0625 C 303.621094 277.859375 303.300781 277.496094 302.097656 277.878906 C 301.625 278.027344 301.621094 278.046875 302.054688 279.277344 C 302.292969 279.964844 303.472656 282.996094 304.675781 286.011719 C 305.878906 289.027344 306.863281 291.644531 306.863281 291.828125 C 306.863281 292.109375 305.507812 292.164062 298.585938 292.164062 L 290.308594 292.164062 L 290.308594 288.445312 C 290.308594 286.398438 290.386719 284.726562 290.488281 284.726562 C 290.585938 284.726562 291.832031 284.617188 293.25 284.480469 C 297.460938 284.082031 299.292969 283.105469 299.894531 280.941406 C 300.605469 278.378906 299.632812 275.910156 297.4375 274.710938 C 296.800781 274.363281 295.914062 274.277344 292.40625 274.210938 L 288.148438 274.128906 L 288.148438 292.085938 L 234.105469 292.222656 C 204.382812 292.296875 139.546875 292.339844 90.03125 292.320312 L 0 292.285156 L 0 300.726562 L 0.992188 301.023438 C 1.539062 301.1875 2.539062 301.414062 3.214844 301.53125 C 3.886719 301.644531 23.820312 301.914062 47.503906 302.132812 C 83.429688 302.457031 94.808594 302.476562 116.121094 302.246094 C 130.175781 302.089844 144.429688 301.875 147.792969 301.765625 C 153.625 301.574219 167.105469 301.699219 198.296875 302.242188 C 234.644531 302.871094 317.476562 302.246094 321.527344 301.308594 C 322.136719 301.167969 323.535156 300.617188 324.632812 300.085938 C 325.730469 299.554688 326.984375 299.121094 327.417969 299.121094 C 327.847656 299.121094 328.988281 299.433594 329.949219 299.8125 C 333.089844 301.054688 336.769531 301.398438 343.210938 301.050781 C 350.734375 300.644531 356.402344 299.765625 358.085938 298.742188 C 358.613281 298.417969 359.730469 297.671875 360.566406 297.082031 C 362.609375 295.640625 363.460938 295.445312 367.546875 295.46875 C 370.140625 295.484375 371.179688 295.402344 371.6875 295.140625 C 372.058594 294.949219 372.359375 294.679688 372.359375 294.546875 C 372.359375 294.414062 372.875 293.804688 373.5 293.199219 L 374.640625 292.089844 L 374.710938 282.53125 L 374.785156 272.96875 L 374.09375 272.96875 C 373.710938 272.96875 373.328125 273.042969 373.242188 273.128906 M 290.308594 279.058594 C 290.308594 283.003906 290.253906 282.9375 293.054688 282.722656 C 295.769531 282.511719 296.761719 282.152344 297.457031 281.128906 C 297.925781 280.4375 298.007812 280.0625 297.925781 279.027344 C 297.738281 276.667969 296.394531 275.847656 292.714844 275.847656 L 290.308594 275.847656 Z M 365.980469 279.777344 C 364.023438 280.664062 362.894531 282.8125 363.039062 285.375 C 363.160156 287.503906 364.027344 288.898438 365.757812 289.753906 C 368.253906 290.992188 370.648438 290.289062 372.046875 287.910156 C 372.625 286.925781 372.71875 286.507812 372.71875 284.925781 C 372.71875 283.265625 372.648438 282.988281 371.996094 282.054688 C 370.933594 280.546875 369.625 279.722656 368.042969 279.566406 C 367.171875 279.480469 366.472656 279.554688 365.980469 279.777344 M 371.574219 290.714844 C 370.945312 291.226562 370.296875 291.695312 370.136719 291.753906 C 369.558594 291.957031 370.167969 292.191406 371.613281 292.3125 L 373.082031 292.441406 L 373.082031 291.101562 C 373.082031 290.367188 373 289.769531 372.902344 289.773438 C 372.800781 289.777344 372.207031 290.199219 371.574219 290.714844 " fill-opacity="1" fill-rule="evenodd"/></g><g clip-path="url(#1dc1d58b96)"><path fill="#000000" d="M 1.042969 271.253906 L 284.949219 271.253906 L 284.949219 276.703125 L 1.042969 276.703125 Z M 1.042969 271.253906 " fill-opacity="1" fill-rule="nonzero"/></g><g fill="#000000" fill-opacity="1"><g transform="translate(284.94025, 290.903976)"><g><path d="M 5.515625 -6.625 L 5.515625 0 L 2.015625 0 L 2.015625 -18.828125 L 8.15625 -18.828125 C 9.414062 -18.828125 10.503906 -18.679688 11.421875 -18.390625 C 12.335938 -18.097656 13.09375 -17.6875 13.6875 -17.15625 C 14.289062 -16.625 14.734375 -15.988281 15.015625 -15.25 C 15.304688 -14.507812 15.453125 -13.703125 15.453125 -12.828125 C 15.453125 -11.910156 15.300781 -11.070312 15 -10.3125 C 14.695312 -9.5625 14.238281 -8.910156 13.625 -8.359375 C 13.019531 -7.816406 12.257812 -7.390625 11.34375 -7.078125 C 10.4375 -6.773438 9.375 -6.625 8.15625 -6.625 Z M 5.515625 -9.359375 L 8.15625 -9.359375 C 8.789062 -9.359375 9.347656 -9.4375 9.828125 -9.59375 C 10.304688 -9.757812 10.703125 -9.992188 11.015625 -10.296875 C 11.328125 -10.597656 11.5625 -10.960938 11.71875 -11.390625 C 11.875 -11.816406 11.953125 -12.296875 11.953125 -12.828125 C 11.953125 -13.328125 11.875 -13.78125 11.71875 -14.1875 C 11.5625 -14.601562 11.328125 -14.953125 11.015625 -15.234375 C 10.703125 -15.523438 10.304688 -15.742188 9.828125 -15.890625 C 9.347656 -16.046875 8.789062 -16.125 8.15625 -16.125 L 5.515625 -16.125 Z M 5.515625 -9.359375 "/></g></g></g><g fill="#000000" fill-opacity="1"><g transform="translate(301.214548, 290.903976)"><g><path d="M 8.40625 0 L 5.5 0 L 0.1875 -13.359375 L 2.859375 -13.359375 C 3.085938 -13.359375 3.28125 -13.300781 3.4375 -13.1875 C 3.601562 -13.070312 3.71875 -12.929688 3.78125 -12.765625 L 6.359375 -5.625 C 6.503906 -5.207031 6.625 -4.796875 6.71875 -4.390625 C 6.820312 -3.992188 6.914062 -3.597656 7 -3.203125 C 7.070312 -3.597656 7.15625 -3.992188 7.25 -4.390625 C 7.351562 -4.796875 7.484375 -5.207031 7.640625 -5.625 L 10.28125 -12.765625 C 10.34375 -12.929688 10.453125 -13.070312 10.609375 -13.1875 C 10.765625 -13.300781 10.953125 -13.359375 11.171875 -13.359375 L 13.71875 -13.359375 Z M 8.40625 0 "/></g></g></g><g fill="#000000" fill-opacity="1"><g transform="translate(315.10629, 290.903976)"><g><path d="M 6.109375 0.203125 C 4.953125 0.203125 4.0625 -0.125 3.4375 -0.78125 C 2.8125 -1.4375 2.5 -2.335938 2.5 -3.484375 L 2.5 -10.953125 L 1.140625 -10.953125 C 0.972656 -10.953125 0.828125 -11.007812 0.703125 -11.125 C 0.578125 -11.238281 0.515625 -11.40625 0.515625 -11.625 L 0.515625 -12.90625 L 2.65625 -13.25 L 3.328125 -16.90625 C 3.367188 -17.082031 3.453125 -17.21875 3.578125 -17.3125 C 3.703125 -17.40625 3.859375 -17.453125 4.046875 -17.453125 L 5.71875 -17.453125 L 5.71875 -13.25 L 9.234375 -13.25 L 9.234375 -10.953125 L 5.71875 -10.953125 L 5.71875 -3.71875 C 5.71875 -3.300781 5.820312 -2.972656 6.03125 -2.734375 C 6.238281 -2.503906 6.515625 -2.390625 6.859375 -2.390625 C 7.054688 -2.390625 7.222656 -2.410156 7.359375 -2.453125 C 7.492188 -2.503906 7.609375 -2.554688 7.703125 -2.609375 C 7.804688 -2.660156 7.894531 -2.707031 7.96875 -2.75 C 8.050781 -2.800781 8.132812 -2.828125 8.21875 -2.828125 C 8.3125 -2.828125 8.390625 -2.800781 8.453125 -2.75 C 8.515625 -2.707031 8.578125 -2.640625 8.640625 -2.546875 L 9.609375 -0.984375 C 9.140625 -0.585938 8.597656 -0.289062 7.984375 -0.09375 C 7.378906 0.101562 6.753906 0.203125 6.109375 0.203125 Z M 6.109375 0.203125 "/></g></g></g><g fill="#000000" fill-opacity="1"><g transform="translate(325.183339, 290.903976)"><g><path d="M 0.953125 -1.765625 C 0.953125 -2.035156 1 -2.289062 1.09375 -2.53125 C 1.195312 -2.78125 1.335938 -2.988281 1.515625 -3.15625 C 1.691406 -3.332031 1.898438 -3.472656 2.140625 -3.578125 C 2.390625 -3.679688 2.65625 -3.734375 2.9375 -3.734375 C 3.195312 -3.734375 3.445312 -3.679688 3.6875 -3.578125 C 3.9375 -3.472656 4.144531 -3.332031 4.3125 -3.15625 C 4.488281 -2.988281 4.628906 -2.78125 4.734375 -2.53125 C 4.835938 -2.289062 4.890625 -2.035156 4.890625 -1.765625 C 4.890625 -1.492188 4.835938 -1.238281 4.734375 -1 C 4.628906 -0.757812 4.488281 -0.550781 4.3125 -0.375 C 4.144531 -0.207031 3.9375 -0.0703125 3.6875 0.03125 C 3.445312 0.132812 3.195312 0.1875 2.9375 0.1875 C 2.65625 0.1875 2.390625 0.132812 2.140625 0.03125 C 1.898438 -0.0703125 1.691406 -0.207031 1.515625 -0.375 C 1.335938 -0.550781 1.195312 -0.757812 1.09375 -1 C 1 -1.238281 0.953125 -1.492188 0.953125 -1.765625 Z M 0.953125 -1.765625 "/></g></g></g><g fill="#000000" fill-opacity="1"><g transform="translate(331.042084, 290.903976)"><g/></g></g><g fill="#000000" fill-opacity="1"><g transform="translate(336.067585, 290.903976)"><g><path d="M 5.40625 -2.890625 L 12.9375 -2.890625 L 12.9375 0 L 1.90625 0 L 1.90625 -18.828125 L 5.40625 -18.828125 Z M 5.40625 -2.890625 "/></g></g></g><g fill="#000000" fill-opacity="1"><g transform="translate(349.529693, 290.903976)"><g><path d="M 6.109375 0.203125 C 4.953125 0.203125 4.0625 -0.125 3.4375 -0.78125 C 2.8125 -1.4375 2.5 -2.335938 2.5 -3.484375 L 2.5 -10.953125 L 1.140625 -10.953125 C 0.972656 -10.953125 0.828125 -11.007812 0.703125 -11.125 C 0.578125 -11.238281 0.515625 -11.40625 0.515625 -11.625 L 0.515625 -12.90625 L 2.65625 -13.25 L 3.328125 -16.90625 C 3.367188 -17.082031 3.453125 -17.21875 3.578125 -17.3125 C 3.703125 -17.40625 3.859375 -17.453125 4.046875 -17.453125 L 5.71875 -17.453125 L 5.71875 -13.25 L 9.234375 -13.25 L 9.234375 -10.953125 L 5.71875 -10.953125 L 5.71875 -3.71875 C 5.71875 -3.300781 5.820312 -2.972656 6.03125 -2.734375 C 6.238281 -2.503906 6.515625 -2.390625 6.859375 -2.390625 C 7.054688 -2.390625 7.222656 -2.410156 7.359375 -2.453125 C 7.492188 -2.503906 7.609375 -2.554688 7.703125 -2.609375 C 7.804688 -2.660156 7.894531 -2.707031 7.96875 -2.75 C 8.050781 -2.800781 8.132812 -2.828125 8.21875 -2.828125 C 8.3125 -2.828125 8.390625 -2.800781 8.453125 -2.75 C 8.515625 -2.707031 8.578125 -2.640625 8.640625 -2.546875 L 9.609375 -0.984375 C 9.140625 -0.585938 8.597656 -0.289062 7.984375 -0.09375 C 7.378906 0.101562 6.753906 0.203125 6.109375 0.203125 Z M 6.109375 0.203125 "/></g></g></g><g fill="#000000" fill-opacity="1"><g transform="translate(359.606741, 290.903976)"><g><path d="M 11.125 0 C 10.707031 0 10.429688 -0.195312 10.296875 -0.59375 L 10.046875 -1.875 C 9.765625 -1.5625 9.472656 -1.28125 9.171875 -1.03125 C 8.867188 -0.78125 8.539062 -0.5625 8.1875 -0.375 C 7.832031 -0.195312 7.453125 -0.0546875 7.046875 0.046875 C 6.648438 0.148438 6.21875 0.203125 5.75 0.203125 C 5.019531 0.203125 4.347656 0.0507812 3.734375 -0.25 C 3.128906 -0.5625 2.609375 -1.003906 2.171875 -1.578125 C 1.734375 -2.160156 1.394531 -2.875 1.15625 -3.71875 C 0.914062 -4.570312 0.796875 -5.546875 0.796875 -6.640625 C 0.796875 -7.628906 0.929688 -8.546875 1.203125 -9.390625 C 1.472656 -10.242188 1.859375 -10.984375 2.359375 -11.609375 C 2.859375 -12.234375 3.457031 -12.722656 4.15625 -13.078125 C 4.863281 -13.429688 5.65625 -13.609375 6.53125 -13.609375 C 7.28125 -13.609375 7.921875 -13.488281 8.453125 -13.25 C 8.984375 -13.007812 9.457031 -12.691406 9.875 -12.296875 L 9.875 -19.359375 L 13.09375 -19.359375 L 13.09375 0 Z M 6.84375 -2.359375 C 7.507812 -2.359375 8.078125 -2.492188 8.546875 -2.765625 C 9.015625 -3.046875 9.457031 -3.441406 9.875 -3.953125 L 9.875 -9.953125 C 9.507812 -10.390625 9.109375 -10.695312 8.671875 -10.875 C 8.242188 -11.0625 7.785156 -11.15625 7.296875 -11.15625 C 6.804688 -11.15625 6.363281 -11.0625 5.96875 -10.875 C 5.570312 -10.695312 5.238281 -10.421875 4.96875 -10.046875 C 4.695312 -9.679688 4.484375 -9.210938 4.328125 -8.640625 C 4.179688 -8.078125 4.109375 -7.410156 4.109375 -6.640625 C 4.109375 -5.859375 4.171875 -5.195312 4.296875 -4.65625 C 4.429688 -4.113281 4.613281 -3.671875 4.84375 -3.328125 C 5.082031 -2.984375 5.367188 -2.734375 5.703125 -2.578125 C 6.046875 -2.429688 6.425781 -2.359375 6.84375 -2.359375 Z M 6.84375 -2.359375 "/></g></g></g></svg>